<svg xmlns="http://www.w3.org/2000/svg" viewBox="0 0 338.05 357.15"><defs><style>.cls-1{fill:none;}.cls-1,.cls-2{stroke:#231f20;stroke-miterlimit:10;}.cls-2,.cls-3{fill:#231f20;}</style></defs><title>hedgehog-concept_10</title><g id="Layer_2" data-name="Layer 2"><g id="Layer_1-2" data-name="Layer 1"><path class="cls-1" d="M205.23,244.48q.32,4.08.32,8.24A104.27,104.27,0,0,1,169,332.25a101.28,101.28,0,0,0,66,24.41c56.62,0,102.52-46.53,102.52-103.93,0-45.88-29.33-84.81-70-98.59A103.93,103.93,0,0,1,205.23,244.48Z"/><path class="cls-1" d="M.5,252.73C.5,310.12,46.4,356.65,103,356.65a101.28,101.28,0,0,0,66-24.41,104.27,104.27,0,0,1-36.52-79.52q0-2.68.13-5.34A103.76,103.76,0,0,1,62.94,157,104,104,0,0,0,.5,252.73Z"/><path class="cls-1" d="M205.55,252.73q0-4.16-.32-8.24a101.6,101.6,0,0,1-72.59,2.91q-.13,2.65-.13,5.34A104.27,104.27,0,0,0,169,332.25,104.27,104.27,0,0,0,205.55,252.73Z"/><path class="cls-1" d="M169,173.21a101.51,101.51,0,0,1,98.51-19.07q.13-2.65.13-5.34c0-57.4-45.9-103.93-102.52-103.93S62.62,91.4,62.62,148.8q0,4.16.32,8.24A101.48,101.48,0,0,1,169,173.21Z"/><path class="cls-1" d="M169,173.21a104.18,104.18,0,0,1,36.2,71.27,103.93,103.93,0,0,0,62.31-90.35A101.51,101.51,0,0,0,169,173.21Z"/><path class="cls-1" d="M132.64,247.39A104.21,104.21,0,0,1,169,173.21,101.48,101.48,0,0,0,62.94,157,103.76,103.76,0,0,0,132.64,247.39Z"/><path class="cls-2" d="M205.23,244.48A104.18,104.18,0,0,0,169,173.21a104.21,104.21,0,0,0-36.39,74.18,101.6,101.6,0,0,0,72.59-2.91Z"/><path class="cls-3" d="M114.86,88.37h.91l1.61,7h0l1.68-7h.85l1.73,7h0l1.58-7h.91l-2.05,8.78h-.85L119.51,90h0l-1.68,7.1H117Z"/><path class="cls-3" d="M126.46,88.37v3.31h0a2.55,2.55,0,0,1,1.85-1,1.67,1.67,0,0,1,1.8,1.85v4.6h-.86V92.58c0-.84-.4-1.12-1-1.12a2.87,2.87,0,0,0-1.79,1v4.73h-.86V88.37Z"/><path class="cls-3" d="M131.88,92a2.55,2.55,0,0,1,2.34-1.34,1.91,1.91,0,0,1,2.16,1.9v3.19a5,5,0,0,0,.14,1.36h-.89l-.1-.88a2.77,2.77,0,0,1-2.06,1,1.65,1.65,0,0,1-1.77-1.74c0-1.39,1-2.08,3.81-2.58v-.34c0-.84-.54-1.16-1.28-1.16a1.61,1.61,0,0,0-1.6,1Zm3.63,1.69c-2,.35-3,.94-3,1.81a1,1,0,0,0,1,1,2.89,2.89,0,0,0,1.92-1Z"/><path class="cls-3" d="M138.43,90.83V88.75h.86v2.08h1.44v.75H139.3v4.5c0,.29.2.44.71.44a4.79,4.79,0,0,0,.77-.06v.72a3.94,3.94,0,0,1-1,.1c-.94,0-1.33-.24-1.33-1V91.58h-1v-.75Z"/><path class="cls-3" d="M145.14,97.15l2.66-8.78h1.43l2.66,8.78h-1l-.82-2.75H147l-.82,2.75Zm2.06-3.58h2.63l-1.25-4.52h-.13Z"/><path class="cls-3" d="M153,90.83h.86v1.25h0a2.12,2.12,0,0,1,2-1.35v.88c-1.08,0-1.64.74-2.05,2v3.5H153Z"/><path class="cls-3" d="M161.77,95.8a2.5,2.5,0,0,1-2.4,1.47c-1.39,0-2.71-1-2.71-3.28,0-2,1-3.28,2.54-3.28,1.3,0,2.37.85,2.37,2.87v.58h-4.05c0,1.39.82,2.36,1.85,2.36a1.93,1.93,0,0,0,1.73-1.07Zm-1.06-2.4c0-1.17-.55-1.95-1.49-1.95s-1.61.78-1.68,1.95Z"/><path class="cls-3" d="M168.69,93.45,166,88.37h1.06l2.09,4,2.09-4h1.05l-2.66,5.08v3.7h-1Z"/><path class="cls-3" d="M174.85,97.27c-1.7,0-2.55-1.46-2.55-3.28s.85-3.28,2.55-3.28,2.55,1.46,2.55,3.28S176.55,97.27,174.85,97.27Zm0-5.81c-1,0-1.69.9-1.69,2.53s.66,2.53,1.69,2.53,1.69-.9,1.69-2.53S175.88,91.46,174.85,91.46Z"/><path class="cls-3" d="M182.59,97.15V96.3h0a2.55,2.55,0,0,1-1.85,1,1.67,1.67,0,0,1-1.8-1.85v-4.6h.86V95.4c0,.84.4,1.12,1,1.12a2.87,2.87,0,0,0,1.79-1V90.83h.86v6.32Z"/><path class="cls-3" d="M189.38,88.37h2.33c2.35,0,3.91,1.51,3.91,4.39,0,2.58-1.37,4.39-4,4.39h-2.28Zm1,8h1.29c2,0,3-1.2,3-3.56,0-2.57-1.2-3.56-3-3.56h-1.34Z"/><path class="cls-3" d="M201.78,95.8a2.5,2.5,0,0,1-2.4,1.47c-1.39,0-2.71-1-2.71-3.28,0-2,1-3.28,2.54-3.28,1.29,0,2.38.85,2.38,2.87v.58h-4.05c0,1.39.82,2.36,1.85,2.36a1.92,1.92,0,0,0,1.73-1.07Zm-1.06-2.4c0-1.17-.55-1.95-1.49-1.95s-1.61.78-1.68,1.95Z"/><path class="cls-3" d="M207.78,95.8a2.5,2.5,0,0,1-2.4,1.47c-1.39,0-2.71-1-2.71-3.28,0-2,1-3.28,2.54-3.28,1.29,0,2.38.85,2.38,2.87v.58h-4.05c0,1.39.82,2.36,1.85,2.36a1.92,1.92,0,0,0,1.73-1.07Zm-1.06-2.4c0-1.17-.55-1.95-1.49-1.95s-1.61.78-1.68,1.95Z"/><path class="cls-3" d="M209.24,99.48V90.83h.86v.74h0a2.15,2.15,0,0,1,1.62-.86c1.1,0,2.55.75,2.55,3.28s-1.45,3.28-2.51,3.28a2.67,2.67,0,0,1-1.64-.71l0,0v2.94Zm.86-3.84a2.32,2.32,0,0,0,1.57.88c1,0,1.76-.67,1.76-2.58,0-1.61-.68-2.48-1.76-2.48a2.16,2.16,0,0,0-1.57.85Z"/><path class="cls-3" d="M217,88.37v8.78h-.86V88.37Z"/><path class="cls-3" d="M223.33,90.83l-2.19,6.88c-.46,1.41-1.28,1.78-2.1,1.78a3.43,3.43,0,0,1-.62-.07v-.72a4.09,4.09,0,0,0,.47,0c.53,0,1.33-.12,1.63-1.51l-2.17-6.4h.91l1.68,4.83h0l1.46-4.83Z"/><path class="cls-3" d="M124.53,111.75l1.92-8.78h2.39c2,0,2.82,1,2.46,2.63s-1.57,2.63-3.61,2.63H127l-.77,3.53Zm2.73-4.91h.89a1.39,1.39,0,0,0,1.49-1.24c.18-.83-.13-1.24-.95-1.24h-.89Z"/><path class="cls-3" d="M132,107.06a2.76,2.76,0,0,1,1.15-1.58,3.19,3.19,0,0,1,1.73-.47c1.61,0,2,.83,1.77,2l-.91,4.2a1.63,1.63,0,0,0,0,.54h-1.51c0-.17,0-.38,0-.64a3.08,3.08,0,0,1-2,.77c-.91,0-1.39-.51-1.15-1.58.34-1.53,1.92-2.19,3.92-2.76l.11-.49c.12-.57-.18-.79-.61-.79a1.08,1.08,0,0,0-1,.81Zm2.82,1.45c-1,.32-2,.83-2.15,1.52-.1.44.12.69.53.69a2,2,0,0,0,1.27-.61Z"/><path class="cls-3" d="M141,107.15c-.07-.61-.4-.9-.85-.9a.78.78,0,0,0-.74.6c-.22,1,2.72,1,2.29,3a2.51,2.51,0,0,1-2.6,2c-.91,0-1.68-.23-2.05-1.88l1.44-.38c0,.62.28,1,.88,1a.8.8,0,0,0,.86-.58c.28-1.26-2.73-1-2.25-3.19A2.42,2.42,0,0,1,140.4,105a1.8,1.8,0,0,1,1.92,1.65Z"/><path class="cls-3" d="M146.3,107.15c-.07-.61-.4-.9-.85-.9a.78.78,0,0,0-.74.6c-.22,1,2.72,1,2.29,3a2.51,2.51,0,0,1-2.6,2c-.91,0-1.68-.23-2.05-1.88l1.44-.38c0,.62.28,1,.88,1a.8.8,0,0,0,.86-.58c.28-1.26-2.73-1-2.25-3.19a2.42,2.42,0,0,1,2.47-1.85,1.8,1.8,0,0,1,1.92,1.65Z"/><path class="cls-3" d="M150.89,105.13l-1.45,6.62h-1.51l1.45-6.62ZM149.62,104l.31-1.39h1.51l-.31,1.39Z"/><path class="cls-3" d="M151.88,107.52a2.8,2.8,0,0,1,3-2.51c1.51,0,2.23.75,1.85,2.51l-.41,1.85a2.78,2.78,0,0,1-2.94,2.51c-1.51,0-2.23-.75-1.86-2.51Zm1,2.24c-.11.51.19.78.72.78a1,1,0,0,0,1.06-.78l.58-2.63c.12-.51-.19-.78-.72-.78a1,1,0,0,0-1.06.78Z"/><path class="cls-3" d="M157.07,111.75l1.45-6.62H160l-.17.75a3.43,3.43,0,0,1,1.88-.88c.92,0,1.3.47,1,1.7l-1.1,5h-1.51l1.07-4.86c.1-.44,0-.73-.4-.73a2.39,2.39,0,0,0-1.12.6l-1.09,5Z"/><path class="cls-3" d="M163.95,107.06a2.76,2.76,0,0,1,1.15-1.58,3.19,3.19,0,0,1,1.73-.47c1.61,0,2,.83,1.77,2l-.91,4.2a1.63,1.63,0,0,0,0,.54h-1.51c0-.17,0-.38,0-.64a3.08,3.08,0,0,1-2,.77c-.91,0-1.39-.51-1.15-1.58.34-1.53,1.92-2.19,3.92-2.76l.11-.49c.12-.57-.18-.79-.61-.79a1.08,1.08,0,0,0-1,.81Zm2.82,1.45c-1,.32-2,.83-2.15,1.52-.1.44.12.69.53.69a2,2,0,0,0,1.27-.61Z"/><path class="cls-3" d="M169.54,106.66l.26-1.24h.6l.4-1.8h1.51l-.4,1.8h1l-.26,1.24h-1l-.74,3.38c-.07.33.17.49.58.49h.3l-.28,1.29a5.42,5.42,0,0,1-.87.06c-1,0-1.56-.36-1.34-1.31l.85-3.89Z"/><path class="cls-3" d="M174.45,108.8l-.19.88c-.14.66.17.95.67.95a1.07,1.07,0,0,0,1.09-.92h1.51a2.75,2.75,0,0,1-2.87,2.16,1.75,1.75,0,0,1-1.88-2.35l.47-2.16a2.89,2.89,0,0,1,2.91-2.35,1.75,1.75,0,0,1,1.91,2.25l-.34,1.54Zm2-1.24.08-.36c.13-.58-.07-.95-.68-.95a1.06,1.06,0,0,0-1.09.95l-.08.36Z"/><path class="cls-3" d="M181.18,111.75l4.07-8.78h2.12l.17,8.78H186V109.9h-2.29l-.88,1.85Zm3.09-3.33h1.64l0-3.55h0Z"/><path class="cls-3" d="M188.42,111.75l1.92-8.78h1.51l-.6,2.77a3.29,3.29,0,0,1,1.67-.73c1.18,0,1.45.92,1.08,2.63l-.35,1.6c-.37,1.7-1.06,2.63-2.23,2.63a1.62,1.62,0,0,1-1.4-.92h0l-.18.8Zm1.83-1.5a.94.94,0,0,0,.82.47c.41,0,.79-.27,1.08-1.58l.31-1.41c.29-1.31,0-1.58-.4-1.58a1.53,1.53,0,0,0-1,.47Z"/><path class="cls-3" d="M195.22,107.52a2.8,2.8,0,0,1,3-2.51c1.51,0,2.23.75,1.85,2.51l-.41,1.85a2.78,2.78,0,0,1-2.94,2.51c-1.51,0-2.23-.75-1.86-2.51Zm1,2.24c-.11.51.19.78.72.78a1,1,0,0,0,1.06-.78l.58-2.63c.12-.51-.19-.78-.72-.78a1,1,0,0,0-1.06.78Z"/><path class="cls-3" d="M206.43,105.13,205,111.75h-1.46l.17-.75a3.43,3.43,0,0,1-1.88.88c-.92,0-1.31-.47-1-1.7l1.1-5h1.51L202.31,110c-.1.44,0,.73.4.73a2.36,2.36,0,0,0,1.1-.6l1.1-5Z"/><path class="cls-3" d="M206.89,106.66l.26-1.24h.6l.4-1.8h1.51l-.4,1.8h1l-.26,1.24h-1l-.74,3.38c-.07.33.17.49.58.49h.3l-.28,1.29a5.43,5.43,0,0,1-.88.06c-1,0-1.56-.36-1.34-1.31l.85-3.89Z"/><path class="cls-3" d="M210.57,111.75l.37-1.73h1.7l-.37,1.73Zm.11-7a3.11,3.11,0,0,1,2.83-1.92,1.64,1.64,0,0,1,1.8,2.07,4.37,4.37,0,0,1-1.24,1.7,4.36,4.36,0,0,0-1.22,1.6l-.13.61H211.4l.26-1.19c.13-.58,2-2.14,2.16-2.85a.57.57,0,0,0-.6-.71,1.56,1.56,0,0,0-1.25,1.07Z"/><path class="cls-3" d="M31.4,246.61h.91l1.61,7h0l1.68-7h.85l1.73,7h0l1.58-7h.91l-2.05,8.78h-.85L36,248.29h0l-1.68,7.1h-.85Z"/><path class="cls-3" d="M43,246.61v3.31h0a2.55,2.55,0,0,1,1.85-1,1.67,1.67,0,0,1,1.8,1.85v4.6H45.8v-4.57c0-.84-.4-1.12-1-1.12a2.87,2.87,0,0,0-1.79,1v4.73h-.86v-8.78Z"/><path class="cls-3" d="M48.42,250.29a2.55,2.55,0,0,1,2.34-1.34,1.91,1.91,0,0,1,2.16,1.9V254a5,5,0,0,0,.14,1.36h-.89l-.1-.88a2.77,2.77,0,0,1-2.06,1,1.65,1.65,0,0,1-1.77-1.74c0-1.39,1-2.08,3.81-2.58v-.34c0-.84-.54-1.16-1.28-1.16a1.61,1.61,0,0,0-1.59,1ZM52,252c-2,.35-3,.94-3,1.81a1,1,0,0,0,1,1,2.89,2.89,0,0,0,1.92-1Z"/><path class="cls-3" d="M55,249.07V247h.86v2.08h1.44v.75H55.83v4.5c0,.29.2.44.71.44a4.73,4.73,0,0,0,.77-.06v.72a3.91,3.91,0,0,1-1,.1c-.94,0-1.33-.24-1.33-1v-4.65h-1v-.75Z"/><path class="cls-3" d="M64.24,251.7l-2.66-5.08h1.06l2.09,4,2.09-4h1.06L65.2,251.7v3.7h-1Z"/><path class="cls-3" d="M70.4,255.52c-1.7,0-2.55-1.46-2.55-3.28s.85-3.28,2.55-3.28S73,250.41,73,252.23,72.1,255.52,70.4,255.52Zm0-5.81c-1,0-1.69.9-1.69,2.53s.66,2.53,1.69,2.53,1.69-.9,1.69-2.53S71.43,249.7,70.4,249.7Z"/><path class="cls-3" d="M78.14,255.39v-.85h0a2.55,2.55,0,0,1-1.85,1,1.67,1.67,0,0,1-1.8-1.85v-4.6h.86v4.57c0,.84.4,1.12,1,1.12a2.87,2.87,0,0,0,1.79-1v-4.73H79v6.32Z"/><path class="cls-3" d="M90.59,252.77c-.38,1.63-1.27,2.75-3,2.75-1.94,0-3.31-1.44-3.31-4.51,0-2.86,1.22-4.51,3.31-4.51A2.87,2.87,0,0,1,90.47,249l-.89.27c-.31-1.24-.86-2-2.16-2S85.2,248.49,85.2,251s1,3.69,2.42,3.69,1.85-1,2.11-2.09Z"/><path class="cls-3" d="M91.75,250.29a2.55,2.55,0,0,1,2.34-1.34,1.91,1.91,0,0,1,2.16,1.9V254a5,5,0,0,0,.14,1.36H95.5l-.1-.88a2.77,2.77,0,0,1-2.06,1,1.65,1.65,0,0,1-1.77-1.74c0-1.39,1-2.08,3.81-2.58v-.34c0-.84-.54-1.16-1.28-1.16a1.61,1.61,0,0,0-1.6,1ZM95.38,252c-2,.35-3,.94-3,1.81a1,1,0,0,0,1,1,2.89,2.89,0,0,0,1.92-1Z"/><path class="cls-3" d="M99,249.07v.85h0a2.55,2.55,0,0,1,1.85-1,1.67,1.67,0,0,1,1.8,1.85v4.6h-.86v-4.57c0-.84-.4-1.12-1-1.12a2.87,2.87,0,0,0-1.79,1v4.73h-.86v-6.32Z"/><path class="cls-3" d="M34.39,261.21h2.33c1.77,0,2.63.75,2.3,2.26a2.77,2.77,0,0,1-1.46,1.82,1.77,1.77,0,0,1,.79,2.17A3.18,3.18,0,0,1,34.89,270H32.47Zm0,7.39h.7a1.55,1.55,0,0,0,1.61-1.28c.18-.84-.31-1.25-1.18-1.25H35Zm.86-3.92h.58a1.43,1.43,0,0,0,1.46-1c.13-.64-.14-1.06-.92-1.06h-.66Z"/><path class="cls-3" d="M41.15,267l-.19.88c-.14.66.17.95.67.95a1.07,1.07,0,0,0,1.09-.92h1.51a2.75,2.75,0,0,1-2.87,2.17,1.75,1.75,0,0,1-1.88-2.35L40,265.6a2.89,2.89,0,0,1,2.91-2.35,1.75,1.75,0,0,1,1.91,2.25L44.44,267Zm2-1.24.08-.36c.13-.58-.07-.95-.68-.95a1.06,1.06,0,0,0-1.09.95l-.08.36Z"/><path class="cls-3" d="M55.41,261.21l-.32,1.48H53.15l-1.6,7.3H49.9l1.6-7.3H49.57l.32-1.48Z"/><path class="cls-3" d="M54.45,270l1.92-8.78h1.51l-.64,2.92a3.17,3.17,0,0,1,1.83-.88c.92,0,1.3.47,1,1.7L59,270H57.5l1.07-4.86c.1-.44,0-.73-.4-.73a2.39,2.39,0,0,0-1.12.6L56,270Z"/><path class="cls-3" d="M62.49,267l-.19.88c-.14.66.17.95.67.95a1.07,1.07,0,0,0,1.09-.92h1.51a2.75,2.75,0,0,1-2.87,2.17,1.75,1.75,0,0,1-1.88-2.35l.47-2.17a2.89,2.89,0,0,1,2.91-2.35,1.75,1.75,0,0,1,1.91,2.25L65.78,267Zm2-1.24.08-.36c.13-.58-.07-.95-.68-.95a1.06,1.06,0,0,0-1.09.95l-.08.36Z"/><path class="cls-3" d="M71.73,261.21h2.33c1.77,0,2.63.75,2.3,2.26a2.77,2.77,0,0,1-1.46,1.82,1.77,1.77,0,0,1,.79,2.17A3.18,3.18,0,0,1,72.23,270H69.81Zm0,7.39h.7a1.55,1.55,0,0,0,1.61-1.28c.18-.84-.31-1.25-1.18-1.25h-.58Zm.86-3.92h.58a1.43,1.43,0,0,0,1.46-1c.13-.64-.14-1.06-.92-1.06h-.66Z"/><path class="cls-3" d="M78.5,267l-.19.88c-.14.66.17.95.67.95a1.07,1.07,0,0,0,1.09-.92h1.51a2.75,2.75,0,0,1-2.87,2.17,1.75,1.75,0,0,1-1.88-2.35l.47-2.17a2.89,2.89,0,0,1,2.91-2.35,1.75,1.75,0,0,1,1.91,2.25L81.79,267Zm2-1.24.08-.36c.13-.58-.07-.95-.68-.95a1.06,1.06,0,0,0-1.09.95l-.08.36Z"/><path class="cls-3" d="M86.35,265.4c-.07-.61-.4-.9-.85-.9a.78.78,0,0,0-.74.6c-.22,1,2.72,1,2.29,3a2.51,2.51,0,0,1-2.6,2c-.91,0-1.68-.23-2.05-1.89l1.44-.38c0,.62.28,1,.88,1a.8.8,0,0,0,.86-.58c.28-1.27-2.73-1-2.25-3.19a2.42,2.42,0,0,1,2.47-1.85,1.8,1.8,0,0,1,1.92,1.65Z"/><path class="cls-3" d="M88.26,264.91l.26-1.24h.6l.4-1.8H91l-.4,1.8h1l-.26,1.24h-1l-.74,3.38c-.07.33.17.49.58.49h.3l-.28,1.29a5.37,5.37,0,0,1-.88.06c-1,0-1.56-.37-1.34-1.31l.85-3.89Z"/><path class="cls-3" d="M94.58,270l1.92-8.78h1.66L96.23,270Z"/><path class="cls-3" d="M97.8,270l1.45-6.62h1.46l-.17.75a3.43,3.43,0,0,1,1.88-.88c.92,0,1.3.47,1,1.7l-1.1,5h-1.51l1.07-4.86c.1-.44,0-.73-.4-.73a2.39,2.39,0,0,0-1.12.6l-1.09,5Z"/><path class="cls-3" d="M43.18,275.81l-.32,1.48H40.93l-1.6,7.3H37.68l1.6-7.3H37.34l.32-1.48Z"/><path class="cls-3" d="M42.22,284.59l1.92-8.78h1.51L45,278.73a3.16,3.16,0,0,1,1.83-.88c.92,0,1.3.47,1,1.7l-1.1,5H45.27l1.07-4.86c.1-.44,0-.73-.4-.73a2.39,2.39,0,0,0-1.12.6l-1.09,5Z"/><path class="cls-3" d="M50.26,281.65l-.19.88c-.14.66.17.95.67.95a1.07,1.07,0,0,0,1.09-.92h1.51a2.75,2.75,0,0,1-2.87,2.17,1.75,1.75,0,0,1-1.88-2.35l.47-2.17A2.89,2.89,0,0,1,52,277.85a1.75,1.75,0,0,1,1.91,2.25l-.34,1.54Zm2-1.24.08-.36c.13-.58-.07-.95-.68-.95a1.06,1.06,0,0,0-1.09.95l-.08.36Z"/><path class="cls-3" d="M59,275.81h1.54l-.1,5.74h0l2.45-5.74h1.6l-.06,5.74h0l2.41-5.74h1.55l-3.81,8.78h-1.6l.11-6h0l-2.63,6H58.93Z"/><path class="cls-3" d="M68.14,280.36a2.8,2.8,0,0,1,3-2.5c1.51,0,2.23.75,1.85,2.5l-.41,1.85a2.78,2.78,0,0,1-2.94,2.51c-1.51,0-2.23-.75-1.86-2.51Zm1,2.24c-.11.51.19.78.72.78a1,1,0,0,0,1.06-.78l.58-2.63c.12-.51-.19-.78-.72-.78a1,1,0,0,0-1.06.78Z"/><path class="cls-3" d="M73.34,284.59,74.79,278h1.48l-.19.88h0a2.1,2.1,0,0,1,1.77-1l-.36,1.65a2.7,2.7,0,0,0-.77-.17,1,1,0,0,0-.91.73l-1,4.52Z"/><path class="cls-3" d="M79.45,275.81H81L79,284.59H77.53Z"/><path class="cls-3" d="M83.84,284.59l.18-.8h0a2.79,2.79,0,0,1-1.81.92c-1.18,0-1.45-.92-1.08-2.63l.35-1.61c.37-1.7,1.06-2.63,2.23-2.63.41,0,.74.19,1.35.73l.6-2.77h1.51l-1.92,8.78Zm1-5.12A.92.92,0,0,0,84,279c-.41,0-.8.27-1.09,1.58L82.63,282c-.29,1.31,0,1.58.41,1.58a1.5,1.5,0,0,0,1-.47Z"/><path class="cls-3" d="M89.44,284.59l4.07-8.78h2.12l.17,8.78H94.22v-1.85H91.91L91,284.59Zm3.09-3.33h1.64l0-3.55h0Z"/><path class="cls-3" d="M97.15,279.51l.26-1.24H98l.4-1.8h1.51l-.4,1.8h1l-.26,1.24h-1l-.74,3.38c-.07.33.17.49.58.49h.3l-.28,1.29a5.37,5.37,0,0,1-.88.06c-1,0-1.56-.37-1.34-1.31l.85-3.89Z"/><path class="cls-3" d="M218.94,246.61h.91l1.61,7h0l1.68-7H224l1.73,7h0l1.58-7h.91l-2.05,8.78h-.85l-1.77-7.1h0l-1.68,7.1H221Z"/><path class="cls-3" d="M230.53,246.61v3.31h0a2.55,2.55,0,0,1,1.85-1,1.67,1.67,0,0,1,1.8,1.85v4.6h-.86v-4.57c0-.84-.4-1.12-1-1.12a2.87,2.87,0,0,0-1.79,1v4.73h-.86v-8.78Z"/><path class="cls-3" d="M236,250.29a2.55,2.55,0,0,1,2.34-1.34,1.91,1.91,0,0,1,2.16,1.9V254a5,5,0,0,0,.14,1.36h-.89l-.1-.88a2.77,2.77,0,0,1-2.06,1,1.65,1.65,0,0,1-1.77-1.74c0-1.39,1-2.08,3.81-2.58v-.34c0-.84-.54-1.16-1.28-1.16a1.61,1.61,0,0,0-1.59,1Zm3.63,1.69c-2,.35-3,.94-3,1.81a1,1,0,0,0,1,1,2.89,2.89,0,0,0,1.92-1Z"/><path class="cls-3" d="M242.5,249.07V247h.86v2.08h1.44v.75h-1.44v4.5c0,.29.2.44.71.44a4.73,4.73,0,0,0,.77-.06v.72a3.91,3.91,0,0,1-1,.1c-.94,0-1.33-.24-1.33-1v-4.65h-1v-.75Z"/><path class="cls-3" d="M250.12,246.61h2.33c2.35,0,3.91,1.51,3.91,4.39,0,2.58-1.37,4.39-4,4.39h-2.28Zm1,8h1.29c2,0,3-1.2,3-3.56,0-2.57-1.2-3.56-3-3.56h-1.34Z"/><path class="cls-3" d="M257.77,249.07h.86v1.25h0a2.12,2.12,0,0,1,2-1.35v.88c-1.08,0-1.64.74-2.05,2v3.5h-.86Z"/><path class="cls-3" d="M263,246.49v1h-.86v-1Zm-.86,2.58H263v6.32h-.86Z"/><path class="cls-3" d="M267.52,255.39h-1.15l-1.92-6.32h.88l1.58,5.23h0l1.58-5.23h.88Z"/><path class="cls-3" d="M275.18,254a2.5,2.5,0,0,1-2.4,1.47c-1.39,0-2.71-1-2.71-3.28,0-2,1-3.28,2.54-3.28,1.29,0,2.38.85,2.38,2.87v.58h-4.05c0,1.39.82,2.36,1.85,2.36a1.92,1.92,0,0,0,1.73-1.07Zm-1.06-2.4c0-1.17-.55-1.95-1.49-1.95s-1.61.78-1.68,1.95Z"/><path class="cls-3" d="M276.56,253.79a2.1,2.1,0,0,0,1.79,1c.94,0,1.34-.51,1.34-1,0-1.6-3.69-.75-3.62-3.06,0-1.09.86-1.71,2.06-1.7a2.73,2.73,0,0,1,2.13,1.11l-.6.54a1.94,1.94,0,0,0-1.61-.89c-.73,0-1.13.38-1.13.94,0,1.37,3.62.67,3.62,3a2,2,0,0,1-2.18,1.85,3.09,3.09,0,0,1-2.49-1.2Z"/><path class="cls-3" d="M287.43,251.7l-2.66-5.08h1.06l2.09,4,2.09-4h1.06l-2.66,5.08v3.7h-1Z"/><path class="cls-3" d="M293.59,255.52c-1.7,0-2.55-1.46-2.55-3.28s.85-3.28,2.55-3.28,2.55,1.46,2.55,3.28S295.29,255.52,293.59,255.52Zm0-5.81c-1,0-1.69.9-1.69,2.53s.66,2.53,1.69,2.53,1.69-.9,1.69-2.53S294.62,249.7,293.59,249.7Z"/><path class="cls-3" d="M301.33,255.39v-.85h0a2.55,2.55,0,0,1-1.85,1,1.67,1.67,0,0,1-1.8-1.85v-4.6h.86v4.57c0,.84.4,1.12,1,1.12a2.87,2.87,0,0,0,1.79-1v-4.73h.86v6.32Z"/><path class="cls-3" d="M304.1,249.07H305v1.25h0a2.12,2.12,0,0,1,2-1.35v.88c-1.08,0-1.64.74-2.05,2v3.5h-.86Z"/><path class="cls-3" d="M221.34,270l1.92-8.78h4.53l-.32,1.48h-2.88l-.44,2h2.2L226,266.2h-2.19l-.5,2.31h3L226,270Z"/><path class="cls-3" d="M231.43,265.66l.06-.29c.12-.51-.19-.78-.72-.78a1,1,0,0,0-1.06.78l-.58,2.63c-.11.51.19.78.72.78a1,1,0,0,0,1.06-.78l.1-.41h1.51v0a2.78,2.78,0,0,1-2.94,2.51c-1.51,0-2.23-.75-1.86-2.51l.41-1.85a2.8,2.8,0,0,1,3-2.5c1.48,0,2.21.73,1.86,2.41Z"/><path class="cls-3" d="M234.12,265.76a2.8,2.8,0,0,1,3-2.5c1.51,0,2.23.75,1.85,2.5l-.41,1.85a2.78,2.78,0,0,1-2.94,2.51c-1.51,0-2.23-.75-1.86-2.51Zm1,2.24c-.11.51.19.78.72.78a1,1,0,0,0,1.06-.78l.58-2.63c.12-.51-.19-.78-.72-.78a1,1,0,0,0-1.06.78Z"/><path class="cls-3" d="M239.31,270l1.45-6.62h1.46l-.17.75a3.43,3.43,0,0,1,1.88-.88c.92,0,1.3.47,1,1.7l-1.1,5h-1.51l1.07-4.86c.1-.44,0-.73-.4-.73a2.39,2.39,0,0,0-1.12.6l-1.09,5Z"/><path class="cls-3" d="M246.12,265.76a2.8,2.8,0,0,1,3-2.5c1.51,0,2.23.75,1.85,2.5l-.41,1.85a2.78,2.78,0,0,1-2.94,2.51c-1.51,0-2.23-.75-1.86-2.51Zm1,2.24c-.11.51.19.78.72.78a1,1,0,0,0,1.06-.78l.58-2.63c.12-.51-.19-.78-.72-.78a1,1,0,0,0-1.06.78Z"/><path class="cls-3" d="M252.76,263.38h1.46l-.17.75a3.24,3.24,0,0,1,1.81-.88c.56,0,.89.39.94,1a3,3,0,0,1,1.82-1c.91,0,1.26.56,1,1.75l-1.09,5H257l1.1-5c.1-.44,0-.56-.28-.56a2.14,2.14,0,0,0-1.08.6l-1.09,5h-1.51l1.1-5c.1-.44,0-.56-.29-.56a1.93,1.93,0,0,0-1.07.6l-1.09,5h-1.51Z"/><path class="cls-3" d="M263.13,263.38,261.68,270h-1.51l1.45-6.62Zm-1.27-1.14.31-1.39h1.51l-.31,1.39Z"/><path class="cls-3" d="M267.43,265.66l.06-.29c.12-.51-.19-.78-.72-.78a1,1,0,0,0-1.06.78l-.58,2.63c-.11.51.19.78.72.78a1,1,0,0,0,1.06-.78l.1-.41h1.51v0a2.78,2.78,0,0,1-2.94,2.51c-1.51,0-2.23-.75-1.86-2.51l.41-1.85a2.8,2.8,0,0,1,3-2.5c1.48,0,2.21.73,1.86,2.41Z"/><path class="cls-3" d="M272.67,270l1.92-8.78h4.53l-.32,1.48h-2.88l-.44,2h2.2l-.32,1.48h-2.19l-.5,2.31h3l-.32,1.48Z"/><path class="cls-3" d="M278.65,270l1.45-6.62h1.46l-.17.75a3.43,3.43,0,0,1,1.88-.88c.92,0,1.3.47,1,1.7l-1.1,5h-1.51l1.07-4.86c.1-.44,0-.73-.4-.73a2.39,2.39,0,0,0-1.12.6l-1.09,5Z"/><path class="cls-3" d="M290.84,264.59a2.63,2.63,0,0,0-.44-.1,2.37,2.37,0,0,0-.54.15,4.63,4.63,0,0,1-.07,1.17c-.36,1.65-1.26,2.6-2.75,2.6a1.77,1.77,0,0,1-.61-.08c-.11.12-.31.23-.35.39-.18.83,3.89-.45,3.37,1.95-.25,1.13-1.52,1.67-3.27,1.67s-2.39-.46-2.23-1.2c.11-.5.73-.8,1.14-1a.87.87,0,0,1-.42-.94c.12-.52.73-.88,1.15-1.11-.62-.49-.72-1.19-.48-2.3a2.72,2.72,0,0,1,2.78-2.49,1.81,1.81,0,0,1,1.54.77,2.08,2.08,0,0,1,1.49-.77Zm-5,5.69c-.19.16-.38.29-.43.54s.38.49,1.27.49c.72,0,1.17-.18,1.26-.52s0-.32-.48-.35Zm2-5.79c-.58,0-.88.4-1.1,1.44-.18.83,0,1.24.44,1.24.65,0,.92-.24,1.18-1.4C288.53,264.92,288.37,264.49,287.84,264.49Z"/><path class="cls-3" d="M293.8,263.38,292.35,270h-1.51l1.45-6.62Zm-1.27-1.14.31-1.39h1.51l-.31,1.39Z"/><path class="cls-3" d="M294,270l1.45-6.62h1.46l-.17.75a3.43,3.43,0,0,1,1.88-.88c.92,0,1.3.47,1,1.7l-1.1,5H297l1.07-4.86c.1-.44,0-.73-.4-.73a2.39,2.39,0,0,0-1.12.6l-1.09,5Z"/><path class="cls-3" d="M302,267l-.19.88c-.14.66.17.95.67.95a1.07,1.07,0,0,0,1.09-.92h1.51a2.75,2.75,0,0,1-2.87,2.17,1.75,1.75,0,0,1-1.88-2.35l.47-2.17a2.89,2.89,0,0,1,2.91-2.35,1.75,1.75,0,0,1,1.91,2.25l-.34,1.54Zm2-1.24.08-.36c.13-.58-.07-.95-.68-.95a1.06,1.06,0,0,0-1.09.95l-.08.36Z"/><path class="cls-3" d="M63,.42V2.13H60.7v8.4H58.77V2.13H56.52V.42Z"/><path class="cls-3" d="M64.08,10.53V.42h1.76V3.78a2.89,2.89,0,0,1,1.92-1c1.08,0,1.64.55,1.64,2v5.8H67.63V4.93c0-.5-.17-.84-.64-.84a2.15,2.15,0,0,0-1.15.69v5.76Z"/><path class="cls-3" d="M71.08,10.53V2.91H72.8v1h0a1.9,1.9,0,0,1,1.82-1.15V4.68a3.61,3.61,0,0,0-.94-.2.83.83,0,0,0-.87.84v5.21Z"/><path class="cls-3" d="M77.36,7.14v1a1,1,0,0,0,1,1.09,1,1,0,0,0,1-1.06H81.2a2.47,2.47,0,0,1-2.8,2.49A2.58,2.58,0,0,1,75.6,8V5.48a2.81,2.81,0,0,1,5.6-.11V7.14Zm2.07-1.43V5.29a1,1,0,1,0-2.07,0v.42Z"/><path class="cls-3" d="M84.36,7.14v1a1,1,0,0,0,1,1.09,1,1,0,0,0,1-1.06H88.2a2.47,2.47,0,0,1-2.8,2.49A2.58,2.58,0,0,1,82.6,8V5.48a2.81,2.81,0,0,1,5.6-.11V7.14Zm2.07-1.43V5.29a1,1,0,1,0-2.07,0v.42Z"/><path class="cls-3" d="M95.42,7.54c0,1.12.49,1.43,1.26,1.43s1.26-.31,1.26-1.43V6.86h1.93v.42c0,2.49-1.32,3.39-3.19,3.39s-3.19-.9-3.19-3.39V3.67c0-2.49,1.32-3.39,3.19-3.39s3.19.9,3.19,3.39v0H97.94V3.42C97.94,2.3,97.45,2,96.68,2s-1.26.31-1.26,1.43Z"/><path class="cls-3" d="M101.64,1.6V0h1.77V1.6Zm1.77,1.32v7.62h-1.77V2.91Z"/><path class="cls-3" d="M105.31,10.53V2.91H107v1h0a1.9,1.9,0,0,1,1.82-1.15V4.68a3.59,3.59,0,0,0-.94-.2.83.83,0,0,0-.87.84v5.21Z"/><path class="cls-3" d="M113.67,5.55V5.21c0-.59-.42-.9-1-.9s-1,.31-1,.9v3c0,.59.42.9,1,.9s1-.31,1-.9V7.76h1.76v0c0,2-1,2.89-2.8,2.89s-2.8-.87-2.8-2.89V5.66c0-2,1-2.89,2.8-2.89a2.49,2.49,0,0,1,2.79,2.77Z"/><path class="cls-3" d="M117.19.42H119V10.53h-1.77Z"/><path class="cls-3" d="M122.48,7.14v1a1,1,0,0,0,1,1.09,1,1,0,0,0,1-1.06h1.76a2.47,2.47,0,0,1-2.8,2.49,2.58,2.58,0,0,1-2.8-2.7V5.48a2.81,2.81,0,0,1,5.6-.11V7.14Zm2.07-1.43V5.29a1,1,0,1,0-2.07,0v.42Z"/><path class="cls-3" d="M131.22,5.24a1.3,1.3,0,0,0-1.22-1,.69.69,0,0,0-.71.69c0,1.18,3.45,1.2,3.45,3.47a2.26,2.26,0,0,1-2.54,2.31c-1.06,0-2-.27-2.87-2.17l1.58-.43a1.3,1.3,0,0,0,1.29,1.18c.53,0,.85-.25.85-.67,0-1.46-3.45-1.11-3.45-3.67A2.17,2.17,0,0,1,130,2.77a2.74,2.74,0,0,1,2.66,1.91Z"/><path class="cls-3" d="M137.83,5.66c0-2,1-2.89,2.8-2.89s2.8.87,2.8,2.89V7.79c0,2-1,2.89-2.8,2.89s-2.8-.87-2.8-2.89Zm1.77,2.58c0,.59.42.9,1,.9s1-.31,1-.9v-3c0-.59-.42-.9-1-.9s-1,.31-1,.9Z"/><path class="cls-3" d="M147.91,1.82h-.5a.56.56,0,0,0-.6.64v.78h1.05V4.68H146.8v5.85H145V4.68h-.8V3.25h.8V2.52c0-1.77.74-2.24,2-2.24a6.31,6.31,0,0,1,.84.08Z"/><path class="cls-3" d="M152,4.68V3.25h.7V1.18h1.76V3.25h1.13V4.68h-1.13V8.57c0,.38.32.56.8.56h.35V10.6a6.09,6.09,0,0,1-1,.07c-1.15,0-1.9-.42-1.9-1.51V4.68Z"/><path class="cls-3" d="M156.64,10.53V.42h1.76V3.78a2.89,2.89,0,0,1,1.92-1c1.08,0,1.64.55,1.64,2v5.8H160.2V4.93c0-.5-.17-.84-.64-.84a2.15,2.15,0,0,0-1.15.69v5.76Z"/><path class="cls-3" d="M165.27,7.14v1a1,1,0,0,0,1,1.09,1,1,0,0,0,1-1.06h1.76a2.47,2.47,0,0,1-2.8,2.49A2.58,2.58,0,0,1,163.5,8V5.48a2.81,2.81,0,0,1,5.6-.11V7.14Zm2.07-1.43V5.29a1,1,0,1,0-2.07,0v.42Z"/><path class="cls-3" d="M174.68,10.53V.42h1.93v4h2.73v-4h1.93V10.53h-1.93V6.16h-2.73v4.37Z"/><path class="cls-3" d="M184.71,7.14v1a1,1,0,0,0,1,1.09,1,1,0,0,0,1-1.06h1.77a2.47,2.47,0,0,1-2.8,2.49,2.58,2.58,0,0,1-2.8-2.7V5.48a2.81,2.81,0,0,1,5.6-.11V7.14Zm2.07-1.43V5.29a1,1,0,1,0-2.07,0v.42Z"/><path class="cls-3" d="M193.79,10.53V9.61h0a2.51,2.51,0,0,1-1.88,1.06c-1.37,0-1.93-1.06-1.93-3V5.8c0-2,.56-3,1.93-3a3.11,3.11,0,0,1,1.76.84V.42h1.76V10.53Zm-.14-5.9a1.4,1.4,0,0,0-1.06-.55c-.48,0-.87.31-.87,1.82V7.54c0,1.51.39,1.82.87,1.82a1.4,1.4,0,0,0,1.06-.55Z"/><path class="cls-3" d="M202.94,4.31a3.74,3.74,0,0,0-.55-.11,2.47,2.47,0,0,0-.6.17A6,6,0,0,1,202,5.72c0,1.9-.81,3-2.55,3a2.23,2.23,0,0,1-.73-.1c-.1.14-.31.27-.31.45,0,1,4.43-.52,4.43,2.24,0,1.3-1.34,1.92-3.39,1.92-1.88,0-2.91-.53-2.91-1.39,0-.57.64-.92,1.06-1.19a1.26,1.26,0,0,1-.73-1.08c0-.6.63-1,1.06-1.27a2.78,2.78,0,0,1-1.15-2.65c0-1.64.63-2.87,2.61-2.87a2.69,2.69,0,0,1,2,.88,1.89,1.89,0,0,1,1.54-.88Zm-4.34,6.56c-.18.18-.36.34-.36.62s.57.56,1.61.56c.84,0,1.33-.21,1.33-.6s-.11-.36-.64-.41Zm.81-6.67c-.67,0-.92.46-.92,1.65,0,1,.31,1.43.84,1.43.76,0,1-.28,1-1.61Q200.34,4.2,199.42,4.2Z"/><path class="cls-3" d="M205.71,7.14v1a1,1,0,0,0,1,1.09,1,1,0,0,0,1-1.06h1.77a2.47,2.47,0,0,1-2.8,2.49,2.58,2.58,0,0,1-2.8-2.7V5.48a2.81,2.81,0,0,1,5.6-.11V7.14Zm2.07-1.43V5.29a1,1,0,1,0-2.07,0v.42Z"/><path class="cls-3" d="M211.09,10.53V.42h1.76V3.78a2.89,2.89,0,0,1,1.92-1c1.08,0,1.64.55,1.64,2v5.8h-1.76V4.93c0-.5-.17-.84-.64-.84a2.15,2.15,0,0,0-1.15.69v5.76Z"/><path class="cls-3" d="M217.95,5.66c0-2,1-2.89,2.8-2.89s2.8.87,2.8,2.89V7.79c0,2-1,2.89-2.8,2.89s-2.8-.87-2.8-2.89Zm1.76,2.58c0,.59.42.9,1,.9s1-.31,1-.9v-3c0-.59-.42-.9-1-.9s-1,.31-1,.9Z"/><path class="cls-3" d="M230.94,4.31a3.74,3.74,0,0,0-.55-.11,2.47,2.47,0,0,0-.6.17A6,6,0,0,1,230,5.72c0,1.9-.81,3-2.55,3a2.23,2.23,0,0,1-.73-.1c-.1.14-.31.27-.31.45,0,1,4.43-.52,4.43,2.24,0,1.3-1.34,1.92-3.39,1.92-1.88,0-2.91-.53-2.91-1.39,0-.57.64-.92,1.06-1.19a1.26,1.26,0,0,1-.73-1.08c0-.6.63-1,1.06-1.27a2.78,2.78,0,0,1-1.15-2.65c0-1.64.63-2.87,2.61-2.87a2.69,2.69,0,0,1,2,.88,1.89,1.89,0,0,1,1.54-.88Zm-4.34,6.56c-.18.18-.36.34-.36.62s.57.56,1.61.56c.84,0,1.33-.21,1.33-.6s-.11-.36-.64-.41Zm.81-6.67c-.67,0-.92.46-.92,1.65,0,1,.31,1.43.84,1.43.76,0,1-.28,1-1.61Q228.34,4.2,227.42,4.2Z"/><path class="cls-3" d="M237.78,7.54c0,1.12.49,1.43,1.26,1.43s1.26-.31,1.26-1.43V6.86h1.93v.42c0,2.49-1.32,3.39-3.19,3.39s-3.19-.9-3.19-3.39V3.67c0-2.49,1.32-3.39,3.19-3.39s3.19.9,3.19,3.39v0H240.3V3.42C240.3,2.3,239.81,2,239,2s-1.26.31-1.26,1.43Z"/><path class="cls-3" d="M243.63,5.66c0-2,1-2.89,2.8-2.89s2.8.87,2.8,2.89V7.79c0,2-1,2.89-2.8,2.89s-2.8-.87-2.8-2.89Zm1.76,2.58c0,.59.42.9,1,.9s1-.31,1-.9v-3c0-.59-.42-.9-1-.9s-1,.31-1,.9Z"/><path class="cls-3" d="M250.77,10.53V2.91h1.71v.87a3.14,3.14,0,0,1,2-1c1.08,0,1.64.55,1.64,2v5.8h-1.76V4.93c0-.5-.17-.84-.64-.84a2.15,2.15,0,0,0-1.15.69v5.76Z"/><path class="cls-3" d="M261.46,5.55V5.21c0-.59-.42-.9-1-.9s-1,.31-1,.9v3c0,.59.42.9,1,.9s1-.31,1-.9V7.76h1.77v0c0,2-1,2.89-2.8,2.89s-2.8-.87-2.8-2.89V5.66c0-2,1-2.89,2.8-2.89a2.49,2.49,0,0,1,2.79,2.77Z"/><path class="cls-3" d="M266.39,7.14v1a1,1,0,0,0,1,1.09,1,1,0,0,0,1-1.06h1.77a2.47,2.47,0,0,1-2.8,2.49,2.58,2.58,0,0,1-2.8-2.7V5.48a2.81,2.81,0,0,1,5.6-.11V7.14Zm2.07-1.43V5.29a1,1,0,1,0-2.07,0v.42Z"/><path class="cls-3" d="M273.39,2.91v.92h0a2.51,2.51,0,0,1,1.88-1.06c1.37,0,1.93,1.06,1.93,3V7.65c0,2-.56,3-1.93,3a3.11,3.11,0,0,1-1.76-.84v3.39h-1.76V2.91Zm.14,5.9a1.4,1.4,0,0,0,1.06.55c.48,0,.87-.31.87-1.82V5.91c0-1.51-.39-1.82-.87-1.82a1.4,1.4,0,0,0-1.06.55Z"/><path class="cls-3" d="M278,4.68V3.25h.7V1.18h1.77V3.25h1.13V4.68h-1.13V8.57c0,.38.32.56.8.56h.35V10.6a6.1,6.1,0,0,1-1,.07c-1.15,0-1.91-.42-1.91-1.51V4.68Z"/></g></g></svg>